<?xml version="1.0" encoding="utf-8"?>
<!-- Generator: Adobe Illustrator 25.0.1, SVG Export Plug-In . SVG Version: 6.00 Build 0)  -->
<svg version="1.1" id="Layer_1" xmlns="http://www.w3.org/2000/svg" xmlns:xlink="http://www.w3.org/1999/xlink" x="0px" y="0px"
	 viewBox="0 0 311 269" style="enable-background:new 0 0 311 269;" xml:space="preserve">
<style type="text/css">
	.st0{fill:#84FA84;stroke:#FFFFFF;stroke-width:2;stroke-linecap:round;stroke-linejoin:round;}
</style>
<path id="PRT5498" class="st0" d="M212.2,174.2l0.5,0.2l-0.3,0.4l-0.4-0.1v-0.3L212.2,174.2L212.2,174.2z M197.7,162.7l0.3-1.6
	l0.2-0.3l0.5-0.1l0.8,0.5l0.3-0.1l0.7,0.1l0.5,0.3l0.7,0.7l2.4,3.3l1.8,1.4h0.9l0.3-0.2l0.4-0.1l1.3-0.2l0.1-1.2l0.9-1.5l0.2-1.2
	l0.3-1l-0.1-0.2l-0.3-0.1l-0.6,0.2l-0.1-0.2v-0.3l0.2-0.3l0.3-0.1l0.5-0.6l0.1-0.5v-1.2l-0.2-0.5l-0.6-1l-0.2-0.7l0.2-0.3l1-0.8
	l0.5-0.5l0.3-0.2l0.5-0.1l1.4-0.5h0.3l0.2,0.1h0.3l0.3-0.2l0.2-0.5l0.2-0.3l0.4-0.2l0.9,0.1l1.2,0.7h0.4l0.1-0.3l0.3-0.8l0.5-0.6
	l0.5-0.8l0.2-0.8l-0.1-0.3l0.3-0.8l1.2-1.5l2.1-0.9l1.3-0.3h0.8l0.6,0.2l0.4,1.4l0.3,0.7l0.4,1.4l0.1,0.3l0.6,0.1l0.4,0.3l-0.1,1.4
	l0.3,0.3l0.3,0.2h0.4l0.9,0.3l0.1,0.2l-0.1,0.4l-0.2,0.2L229,154l0.1,0.3l0.2,0.3l0.1,0.2l0.3,0.1l0.7,0.1l0.5,0.2l0.3,0.2l0.1,0.2
	l-0.2,0.5v0.2l0.4,0.3l1.3,0.4l0.6-0.1l0.5-0.2l0.6-0.8l0.7-0.6l0.3-0.5l0.1-0.5v-0.5l0.4-0.5l0.5-0.3l1.1-0.3l1.5-0.1l2.2,0.3
	l1.4,0.5l0.3,0.1l1.4,0.6l-0.6,1.1l-0.1,0.2v1.1l-0.3,1.7l0.7,3.6l0.3,0.6l0.4,0.4l0.7,0.3l0.7,0.7l0.4,0.2l1.1,0.4l0.8,0.1l0.3,0.2
	l0.3,0.7l-0.1,0.4l-0.3,0.7l-0.4,0.6v0.3l0.1,0.3l0.5,0.3v0.2l-0.2,0.2l-0.7,0.4l-1.3,1l-0.6,0.4l-0.3,0.7l0.3,0.6l0.2,0.3v0.3
	l-0.2,0.2l-0.3,0.2l-0.4,0.4l-0.9-0.2l-1.7,0.1l-1.2,0.2l-1.3,0.7l-0.2,1.3l-1,1.6l-0.5-0.2l-0.3-0.6l-0.3-0.3l-4.5-2l-3.6-0.8
	l-2.7-0.9l-2.7,0.2l-3.2,0.3l-2.8,0.3l-2,1.1l-1.1,1l-1.5,1.2l-1.2,1.5l-0.4,1.1l-0.7-0.6l0.4-0.9l1.3-1.5l0.6-1.8l0.5-0.9h0.7
	l-0.1-1.7l1.1-4l-0.6-2l-0.1,1.2l-0.2,1.1l-1.4,2.9l-0.5,0.3l-0.7,0.3h-0.7h-0.6l-0.5-0.2l-0.2-0.4h-0.4l-0.2,0.6l-0.6,0.4l-0.7,0.1
	l-0.6-0.3l-0.1,0.7l1.6,0.7l0.3,0.8h0.3l0.1-0.8l0.7-0.5h0.9l0.4,0.4l-0.1,0.9l-0.2,0.8l-0.8,1.4l-0.5,1.5l0.4,2l2,1.8l0.3-0.3
	l0.9,2.2l0.5,3.9l0.3,0.8l0.5,0.6l0.2,0.8l-0.3,1v0.2l-0.3,0.1h-0.4l-0.3-0.1l-0.6-0.5l-1.2-1.2l-1.6-0.2h-2.4l-2.3,1l-2,1.2
	l-1.5,0.5l-0.4-0.7l-0.2-1.8l-0.2-1.7l0.5-0.9l0.6-0.4v-0.2l-1,0.2l-0.3-0.6l-0.4-1.2v-0.6h-0.4l-0.7-0.6l-0.6-0.7l-0.9-1.1
	l-1.2-1.4l-0.4-0.4v-0.2l-0.2-0.4l0.1-0.4l0.6,0.1l0.8-0.2l0.3-0.4l0.2-0.3l-0.1-0.5l-0.3-0.8l-0.3-0.4l-0.1-0.7v-0.4l0.2-0.3
	l0.5-0.4l0.4-1.1V172l-0.2-0.7l-0.8-0.6l-0.4-0.1l-1.4-0.5l-2.3-1.1l-0.1-0.3l0.6-1l0.4-1.1l-0.4-0.7l-0.3-0.7l0.1-0.2l1.4,0.1h0.4
	h0.5l0.5-0.5l0.1-0.5v-0.3L197.7,162.7L197.7,162.7z"/>
<path id="PRT739" class="st0" d="M114.8,154.9l0.4,0.4h0.4l0.6,0.4v0.9l0.1,0.3l0.4,0.3l0.4,0.2l1.1,0.9l0.5,0.2l0.6,0.7l-0.2,2.3
	l-0.4,0.3h-0.3h-0.5l-0.5-0.1l-0.8-0.3l-0.3-0.2l-0.5-0.5l-0.1-0.1l-0.8-0.2h-0.3h-0.4l-0.9,0.5l-1,0.2v0.4l0.3,0.7l0.4,0.6l0.2,0.4
	l-0.1,0.3l-0.4,0.3l-0.9,0.1h-0.5l-1.3-0.2l-1.1,1.5l1.4,0.9l0.8,0.1l0.6,0.3l-0.2,1.4l-4.5,4.4h-0.1l-0.7-0.1l-2.4-0.7l-3.1-0.5
	l-0.3-0.4h1.1h0.4l-1.4-0.8l-0.5-0.5l0.4-0.6v-0.2h-0.3l-0.5,0.2l-0.3,0.1l-0.3-0.1l-0.2-0.4l0.1-0.2l0.3-0.2l0.1-0.2l-0.1-0.4
	l-0.4-0.3l-0.9-0.5l-0.4,0.7l-0.6,0.3l-0.6-0.1l-0.2-0.7l-0.1-1l-0.3-0.7l-0.4-0.6l-0.6-0.6v0.7l0.5,1l0.3,1.2l-0.4,0.9l-0.4,0.3
	l-1.5,0.3l-2.1-1.5l-1.1,0.4h0.8l0.8,0.3l0.2,0.3l-0.7,0.2l1,0.5l1.4,0.5l1.5,0.2l1.3,0.1l0.8,0.2l1.2,0.4l1.2,0.6l0.6,0.5l-18-3.8
	h-1.2l-0.1-0.4l-0.2-1.8l0.4-0.6l-0.4-1.3l-0.5-0.6v-0.5l0.2-0.3l0.3-0.4l0.3-0.5v-0.4l-0.2-0.3l-0.7-0.3l-0.3-0.2l-0.8-0.7l0.8-0.8
	l0.9-0.5l0.6-0.7v-0.3l-0.2-0.1h-0.4l-0.3,0.2h-0.6l-0.5-1l0.3-0.8l-1.4-2l-0.1-0.1l-0.6-0.2l1.6-2.4l0.8-0.2h0.4h1.1l1.5-3v-0.4
	l-0.1-0.6l-0.7-0.3l-0.3-0.2l-0.4-0.5v-0.3l0.2-0.1h0.4h0.3l1.8,1.3l0.6,0.2l0.6,0.1h0.3l0.7-0.2l1.4-0.2l1-0.3h0.6l0.3,0.2l0.1,0.3
	v0.4l-0.4,0.6l-0.1,0.4v0.4l0.3,0.7l0.1,0.5v0.5l-0.2,0.3l0.1,1.2l1.7-0.4h0.3l0.6,0.4l1.7,0.8l1,0.9l0.8,1l0.7,0.3h0.4H97l0.3-0.2
	l0.6-0.6l0.4-0.2l0.4-0.1l1.5-0.1l0.7-0.2l0.1-0.2l0.3-0.7l0.6-0.7l0.6,1.6l0.3,0.3l0.4,0.2h0.3l1.2-0.5l0.9-0.2l0.4-0.2l0.5-0.6
	l0.8-0.4l0.9,2.2l0.7,0.9h0.3h0.4l0.7-0.4h0.7l0.4,0.2l1.8,1.1L114.8,154.9L114.8,154.9z"/>
<path id="PRT740" class="st0" d="M138.3,146l1.5,0.8l0.4,0.4l0.2,0.4l0.3,0.7l0.4,0.3l0.4,0.3l0.3,0.3l-0.1,0.4l0.5,1.7l0.6,0.5h0.5
	l0.2,0.2l0.5,0.3h0.3l0.5-0.2l-0.1,1.7l-0.1,0.3h0.2l0.4-0.1l1-0.1l0.1,0.2l-0.1,0.8l0.4,0.8l0.1,0.5l0.6,1.7l0.3,0.7l-0.6,0.2h-0.4
	l-1.2,0.3l-0.6,0.1l-2.2,0.5l0.2,0.6l0.4,0.6l0.1,0.3l0.1,0.6l1.5,1.9l0.3,0.8l0.1,0.4l-0.2,0.8l0.8,1.8l0.8,0.4h0.4l1-0.1h0.6
	l0.4-0.1l0.5-0.6l0.4-0.3l0.8-0.2l0.5,0.2l0.3,0.3l0.5,0.7l0.7,0.8l1.6-0.3l0.9-0.1l1.4-0.5l0.4,0.3l1.4,1v0.3l0.1,0.4l-0.2,0.4v0.3
	l0.2,0.1l0.4,0.1l0.4-0.1l0.7-0.3l0.6,0.1l0.4,0.6l-0.2,1.9l0.2,2.6l0.5,1.2l0.6,0.5l2.6,1.3l0.5,0.4l0.2,0.3l0.2,0.8l1.5,0.8
	l0.6,0.2l1-0.2l1.6-0.1l-0.2,1.1l-0.4,0.7l-0.1,0.6l0.1,0.5l0.4,0.6l1,0.9l1.6,0.9l1,0.8l0.6,0.8l-0.6,0.7l-3.1,0.9l-0.6,0.3
	l-0.4,0.3l-0.2,0.3l0.1,0.2l-0.1,0.5l0.2,0.3l1,1.7v1.5l0.1,0.4l-1.2,0.3l-1.1,0.4l-1.5,1.5l-0.5,0.3l-0.1-0.5l0.5-1.8l-2-2.9
	l-0.6-0.7l-0.1-0.8l0.6-0.5l0.1-0.5l-0.5-0.4l-0.6,0.3l-0.7,0.6l-1-0.6l-1.1-0.9l-0.5-0.3l-1.3-1.9l-0.9-0.6l-0.8-0.4l-1.5-0.8
	l-0.9-0.1l-1,0.1l-1.4-0.5l-1.9-0.3l-8.5-3.1l-10.6-3.6l0.6-1.3l0.2-0.3l0.3-0.6l0.3-1.3L133,173l-0.3-0.4l-0.5-1l0.2-2l0.1-0.8
	l0.2-0.9l0.3-0.4l0.6-0.7l0.6-0.4l0.2-0.4l-0.1-0.4l-0.2-0.3l-1-0.6l-0.4-0.6v-0.5l0.1-0.3l0.3-0.3l1.2-0.2l0.5-0.1h0.8l0.4-0.1
	l0.5-0.3l-0.3-0.3l-0.9-0.7l-0.6-1.1l-1.1-1.3v-0.8h-0.2v-0.4l0.2-0.3l1.2-0.5l1-0.4l0.6-0.2l0.5,0.1l0.3,0.2l0.4,0.5l0.1-0.6
	l-0.6-1.6l-1.6-1.4l-0.1-0.4l0.3-0.7v-0.3l-0.3-0.2l-0.4-0.1l-0.3,0.1l-0.7,0.7l-0.6,0.1l-1-0.7l-1.5-1.7l0.4-1.1l-1.6-1.3l0.5-0.7
	l0.7-0.4l1.5,0.3l0.9-0.2l2.7-1.6l0.3,0.4l0.3,0.2l0.5,0.2l0.5-0.2L138.3,146L138.3,146z"/>
<path id="PRT741" class="st0" d="M38.7,148.1v0.2v0.5l2.1,3.8l0.4,0.9l0.1,3.5l0.2,0.6l0.2,0.6l0.2,0.3l0.6,0.7l0.3,0.6l-0.1,0.7
	l0.2,0.5l0.3,0.3l0.8,0.2l0.8,0.1l0.8,0.2l0.4,0.4l0.6,0.2l0.6-0.1l1.3,0.7l-0.2,0.6l-0.2,0.4l-0.1,0.8l-0.5,1.2l-0.2,0.3l0.6,0.7
	l0.1,0.3l0.1,2.1l1.1,2.9v0.3l-0.1,1h-0.7l-1,0.4h-1.2l-0.6-0.1l-0.3-0.9l-0.5-2.4l-0.3-0.7l-0.5-0.7l-0.5-0.5l1.3,4.4L45,174
	l-0.1,0.5l-0.5,0.8l-1.7,0.7h-1.5l-2.4-0.3l-1.5,0.3l-0.6-0.2l-0.5-0.3l-2.4-2.8l-1.5-1.4l-2-0.4l-0.3-0.5l-0.5-0.9l-0.3-1l-0.5-0.8
	l-0.6-0.3L27,167l-0.6-0.4l-0.5-0.7l-0.1-0.7l-0.1-1.4l-0.3-0.7l-0.9-1.4l-0.3-0.8l-1-6.1l-0.4-0.7l-0.9-1l-0.2-0.4l-0.1-0.3v-0.6
	l-0.3-0.8l-0.9-1.2l0.5-0.3l0.8-0.4l2.3,0.1l0.9-0.1l0.4-0.5l-0.2-0.6l-0.3-0.7l-0.1-0.8l0.4-0.8l0.6-0.6l0.7-0.3l1,0.1l0.7,0.4
	l0.5,0.6l0.7,1.2l1.2,1.1l2.3,1.6l0.9,0.4h1l1-0.4l0.6-1.5l0.4-0.3h0.7L38.7,148.1L38.7,148.1z"/>
<path id="PRT743" class="st0" d="M227.4,105.9l0.5-0.6v-0.6l-0.2-1l-0.4-1l-0.7-0.5l0.1-0.3l-0.4-1l-0.1-1.1l0.5-0.7l1.5,0.4
	l0.7,0.3l1.7,0.6l1.5,0.7l1.6,0.4l0.6,0.3l1.2,0.4l0.2,1l-1,2.2v0.7l0.3,0.4l1.1,0.3l0.5,0.5l0.2,0.3l0.2,0.5l0.2,0.5v0.5l-0.2,0.5
	v0.5l0.3,0.4l0.2,1.3l0.3,0.3l0.4-0.1l0.5-0.1h0.5l0.9,0.2l2.4,0.9l1.7,0.4l2,1.1l3.1,3.7l1,0.7l1.5,0.5l2.4,0.4l0.8,0.2l0.4,0.2
	l1.1,1.1l0.3,0.4l0.3-0.1l0.7,0.1l0.7,0.6h0.5l0.1-0.3l0.6-0.2l0.7-0.1l0.2,1v1.1l0.5,0.8l0.7,0.8l0.3,0.5l0.1,0.3l-0.1,0.3L262,127
	l-0.1,0.3l-0.1,2l1.4,3.2l0.8,1.2v0.2l0.4,0.7l0.2,0.6l0.3,0.1l0.1,0.6l0.5,0.6l0.3,0.1l0.3,0.2l0.3,0.6l0.2,1.1v0.5l0.2,1.3
	l0.4,0.5l0.3,0.2h0.3l0.7-0.4h0.2l0.1,0.3l0.8,1.4l0.7,0.9l0.2,0.6v0.4l-0.1,1.5v0.8l-0.4,1.3l-2.1,2.8l-0.3,0.6l-0.5,0.5l-0.3,0.1
	l-0.8,0.1l-0.5,0.3l-0.3,1l0.1,0.7l0.2,0.3l-0.1,0.4v0.5l0.2,0.8l0.6,1.6l0.5,0.4l0.3,0.1l0.5,0.2l0.6,1.3l-0.3,1.8l-0.2,0.5l-1,1.6
	v0.4l0.2,1.6l0.2,0.3l0.5,0.4l0.2,0.2l-0.1,0.4l-0.2,0.2l-0.5,1.1v1.6l-0.2,0.3l-0.8,0.7l-0.5,0.7l-0.2,0.6l-0.5,0.8l-0.3,0.4
	l-2-0.4l-2.3-0.1l-1.2,0.3l-0.8,0.4l-0.6,0.5l-0.7,0.1l-2.2-0.6l-1.4-0.1l-1.3-0.4l-0.2-0.5l-0.2-1.2l-1.2-0.2l0.1,0.4l0.2,0.9
	l0.1,1l-0.9,0.3l-2.6-0.3l-1.8-0.3l0.4-0.4l0.3-0.2l0.2-0.2v-0.3l-0.2-0.3l-0.3-0.6l0.3-0.7l0.6-0.4l1.3-1l0.7-0.4l0.2-0.2V168
	l-0.5-0.3l-0.1-0.3v-0.3l0.4-0.6l0.3-0.7l0.1-0.4l-0.3-0.7l-0.3-0.2l-0.8-0.1l-1.1-0.4l-0.4-0.2l-0.7-0.7l-0.7-0.3l-0.4-0.4
	l-0.3-0.6l-0.7-3.6l0.3-1.7v-1.1l0.1-0.2l0.6-1.1l-1.4-0.6l-0.3-0.1l-1.4-0.5l-2.2-0.3l-1.5,0.1l-1.1,0.3l-0.5,0.3l-0.4,0.5v0.5
	l-0.1,0.5l-0.3,0.5l-0.7,0.6l-0.6,0.8l-0.5,0.2l-0.6,0.1l-1.3-0.4l-0.4-0.3v-0.2l0.2-0.5l-0.1-0.2l-0.3-0.2l-0.5-0.2l-0.7-0.1
	l-0.3-0.1l-0.1-0.2l-0.2-0.3L229,154l0.2-0.4l0.2-0.2l0.1-0.4l-0.1-0.2l-0.9-0.3h-0.4l-0.3-0.2l-0.3-0.3l0.1-1.4l-0.4-0.3l-0.6-0.1
	l-0.1-0.3l-0.4-1.4l-0.3-0.7l-0.4-1.4l-0.6-0.2H224l-1.3,0.3l-2.1,0.9l-0.5-0.1l0.1-3l-0.1-0.8l0.1-0.6l0.1-0.2l0.5-0.5l0.3-0.4
	l0.1-0.4v-0.3l-0.5-0.9l0.2-0.8l0.5-1.1l1-0.9l1.6-3.4l0.2-2l0.4-1.1l1.4-2.5l0.2-0.6v-2.6l0.2-0.7l0.3-0.9v-1.8l-0.1-0.5h-0.3
	l-0.9-0.6l-0.7-0.6l-0.5-1.2H224l-0.3-0.7l-0.3-0.1l-0.3-0.4l-0.4-0.3l-0.5-0.2l-0.7-0.1l-0.4-1.2l-0.7-1.3l-0.1-0.6l-0.4-1v-0.6
	l0.6-0.2l0.7-0.5l0.4-0.1l0.7-0.2l0.4-0.2l0.8-0.8l0.5-1l0.2-0.2l0.7-0.2l1.1-0.5l0.3-0.1l0.7-0.3l0.4-0.4l0.3-0.4l0.1-0.6l-0.1-0.4
	L227.4,105.9L227.4,105.9z"/>
<path id="PRT744" class="st0" d="M197.8,110.2l1.4,1.8l0.9,0.4l0.4,0.1l1.7,0.3l1.2,0.1l0.9-0.1l0.3-0.2l0.3-0.5l0.4-0.1l0.7,0.2
	l2.5,1.6l2.5,0.8l0.6,0.4l0.7-0.5h0.6l0.5,0.4l0.6,0.6l0.3-0.6l0.9-1.1l5.4-4.2l0.3-0.2l0.7-0.2l0.3-0.2l0.3-0.3l0.5-0.6l0.2-0.2
	l4.1-1.7l0.4-0.3l0.3,0.4l0.1,0.4l-0.1,0.6l-0.3,0.4l-0.4,0.4l-0.7,0.3l-0.3,0.1l-1.1,0.5l-0.7,0.2l-0.2,0.2l-0.5,1l-0.8,0.8
	l-0.4,0.2l-0.7,0.2l-0.4,0.1l-0.7,0.5l-0.6,0.2v0.6l0.4,1l0.1,0.6l0.7,1.3l0.4,1.2l0.7,0.1l0.5,0.2l0.4,0.3l0.3,0.4l0.3,0.1l0.3,0.7
	h0.2l0.5,1.2l0.7,0.6l0.9,0.6h0.3l0.1,0.5v1.8l-0.3,0.9l-0.2,0.7v2.6l-0.2,0.6l-1.4,2.5l-0.4,1.1l-0.2,2l-1.6,3.4l-1,0.9l-0.5,1.1
	l-0.2,0.8l0.5,0.9v0.3l-0.1,0.4l-0.3,0.4l-0.5,0.5l-0.1,0.2l-0.1,0.6l0.1,0.8l-0.1,3l0.5,0.1l-1.2,1.5l-0.3,0.8l0.1,0.3l-0.2,0.8
	l-0.5,0.8l-0.5,0.6l-0.3,0.8l-0.1,0.3h-0.4l-1.2-0.7l-0.9-0.1l-0.4,0.2l-0.2,0.3l-0.2,0.5l-0.3,0.2h-0.3l-0.2-0.1h-0.3l-1.4,0.5
	l-0.5,0.1l-0.3,0.2l-0.5,0.5l-1,0.8l-0.2,0.3l0.2,0.7l0.6,1l0.2,0.5v1.2l-0.1,0.5l-0.5,0.6l-0.3,0.1l-0.2,0.3v0.3l0.1,0.2l0.6-0.2
	l0.3,0.1l0.1,0.2l-0.3,1l-0.2,1.2l-0.9,1.5l-0.1,1.2l-1.3,0.2l-0.4,0.1l-0.3,0.2h-0.9l-1.8-1.4l-2.4-3.3l-0.7-0.7l-0.5-0.3l-0.7-0.1
	l-0.3,0.1l-0.8-0.5l-0.5,0.1l-0.2,0.3l-0.3,1.6l-1.6-1.9l-0.4-1.7l-0.3-0.4l-0.8-0.9l-0.1-0.4V157l-0.2-0.5l-0.4-0.4l-0.6-0.2v-0.2
	l0.3-0.7v-0.6l-0.2-0.4l0.1-0.6l-0.1-0.3l-0.5-0.2v-0.3l0.2-0.2l1.1-1.1l0.3-0.4l0.2-1.2l0.2-0.4l0.3-0.3l0.8-0.3v-0.4l0.1-0.2
	l0.6-0.3l0.3-0.1l0.3-0.7l-0.6-0.7l-0.7-0.2l-0.5,0.1l-0.3,0.2l-0.2,0.7l-0.7,0.6l-0.4,0.3h-0.4l-0.9-0.2l-0.4,0.2l-0.1,0.1
	l-0.1,0.5l-0.9,2.1l-0.5,0.6h-0.4l-0.3-0.1l-0.6-0.5l-0.5-0.1l-0.5-0.1h-0.9l-0.4-0.2l-0.3-0.1l-0.1-0.8l-0.2-0.2l-0.7-0.4L185,148
	l-0.2-0.6l-0.2-0.3l-0.1-0.3l-0.1-1.1l0.3-0.6h0.2l0.4,0.1l0.6,0.1l0.7-0.1l0.3-0.3l-0.1-0.2l-0.3-0.1h-0.3l-0.4-0.2l-0.2-0.5
	l-0.1-0.6l0.1-0.3l0.2-0.3l0.9-0.9l0.4-0.1h0.8h0.6l0.1-0.1l0.1-1l-0.1-0.3l-0.4-0.6l-0.3-0.3l-0.4-0.6l-0.2-0.9l0.4-0.4l2.4-1.8
	l0.8-1.1l0.1-0.5l-0.1-0.7l0.1-0.9l-0.5-1.3l-0.4-0.3l-0.8-0.7v-0.3l0.4-0.6l0.1-0.3l-0.2-0.4v-0.4v-0.4l0.4-0.9l-0.2-0.5l-0.2-0.2
	l-0.7-0.5l-0.5-0.5l-0.2-0.6l-0.2-0.8l-0.2-0.6l-0.3-0.4l-0.3-0.2h-0.4l-0.6,0.5l-0.4-0.6v-0.3l0.5-0.2l0.6-1.6l0.7-0.7l0.5-0.2
	l0.8-0.1l0.3-0.1h0.6l0.8-0.9l1-0.3l0.7-0.1l0.8-0.6l0.8,0.2l0.4-0.2l1-0.6l0.3-0.3l0.3-0.6v-0.7l0.1-0.2l-0.2-0.6l-0.8-0.8
	l-0.8-0.9l-0.4-1.1v-0.8l0.2-0.4l0.4-0.5l0.3-0.1l0.7-0.1l0.3,0.1l1,0.6l0.2,0.1h0.5L197.8,110.2L197.8,110.2z"/>
<path id="PRT745" class="st0" d="M287.8,135.4l0.5,0.8l0.3,1l-0.1,1.1l-0.3,0.9h-0.4l0.3-2l-0.3-0.8l-1-1l0.7-0.2L287.8,135.4z
	 M287.2,136.2l0.2,0.6l-0.5,0.4v-0.3l-0.1-0.4L287.2,136.2z M264.4,173.1l0.3-0.4l0.5-0.8l0.2-0.6l0.5-0.7l0.8-0.7l0.2-0.3V168
	l0.5-1.1l0.2-0.2l0.1-0.4l-0.2-0.2l-0.5-0.4l-0.2-0.3l-0.2-1.6v-0.4l1-1.6l0.2-0.5l0.3-1.8l-0.6-1.3L267,158l-0.3-0.1l-0.5-0.4
	l-0.6-1.6l-0.2-0.8v-0.5l0.1-0.4l-0.2-0.3l-0.1-0.7l0.3-1l0.5-0.3l0.8-0.1l0.3-0.1l0.5-0.5l0.3-0.6l2.1-2.8l0.4-1.3v-0.8l0.1-1.5
	v-0.4l-0.2-0.6l-0.7-0.9l-0.8-1.4l-0.1-0.3h-0.2l-0.7,0.4h-0.3l-0.3-0.2l-0.4-0.5l-0.2-1.3v-0.5l-0.2-1.1l-0.3-0.6l-0.3-0.2
	l-0.3-0.1l-0.5-0.6l-0.1-0.6l-0.3-0.1l-0.2-0.6l-0.4-0.7v-0.2l-0.8-1.2l-1.4-3.2l0.1-2l0.1-0.3l0.1-0.5l0.1-0.3l-0.1-0.3l-0.3-0.5
	l-0.7-0.8l-0.5-0.8v-1.1l-0.2-1l0.5-0.4l0.4-0.3l0.5-0.6l0.3-0.3l1-0.2l1.2-0.3l1.1-0.1l0.6,0.1l1.5-0.7l4-0.3l1.7-0.4l0.7,0.3
	l1.1-0.2l2.2-0.6l0.7-0.3l0.1-0.3h0.3l0.3,0.3l-0.5,0.7l-0.2,0.8v0.9l0.1,0.9l0.3,0.9l1.1,1.6l0.3,0.6l1.5,2.4l0.4,0.3l4.1,6
	l1.2,1.3v0.6l-0.3,0.6l-0.1,0.8l-0.1,2.5l-0.2,0.7l0.5,0.3v0.5l-0.5,0.8l0.6-0.3l0.3-0.2h0.4l-1.3,0.9l-1.2,1.4l-1.6,2.8l-0.3,1.7
	l-0.6,1.2v1.4l0.5,3.2l-1,2.8l0.5,1.2l0.2,1.8l-0.6,1.7l0.1,0.1l-1.2,2.1l-0.3,1.7l0.1,1.8l0.2,0.6l0.4,0.5l1.3,1.3v2.4l0.2,0.5
	l0.6,1.1l0.3,0.5v0.6l0.2,0.9l0.8,0.9l-0.3,0.8l0.7,0.7l0.3,0.3l0.1,0.4l0.7,0.8l0.2,0.4l-0.2,0.6l-0.5,0.5l-0.3,0.4l0.3,0.6
	l-1.4-0.3l-0.7-0.2l-2.8-1.7l-2.5-1.2l-1.5,0.4l-0.7-0.7l-0.9-0.9l-2.3-0.6l-1.6,0.6l-1.3-0.6l-1.2-1.1l-1.3-0.2l-1.6-0.7
	L264.4,173.1L264.4,173.1z"/>
<path id="PRT746" class="st0" d="M194.3,183l0.8,0.7L195,184l-0.9-0.4l-0.7-0.4l-0.5-0.4l-0.5-0.6h0.3l0.8,0.2L194.3,183L194.3,183z
	 M192.9,180.9l0.2,0.6l-0.4,0.3l-0.7-0.2l-0.2-0.3l0.2-0.3l0.4-0.2L192.9,180.9L192.9,180.9z M191.2,181.6l0.3,0.3l-0.8-0.1
	l-0.8-0.3l0.3-0.2L191.2,181.6z M197.2,177.7l-0.1,0.4l0.2,0.4H197l-0.7,0.4l-1,0.5l-1.1,0.2l-0.8-0.3l0.1,0.9l-0.8,0.5l-1.3,0.2
	l-1.2,0.3l-3.6-1.6l-1.6-1.1l-1.1-1.4l-0.2-0.8l-0.1-1.7l-0.3-0.7l-1.1-1.5h0.3l0.3,0.3l1,0.8l0.4,1.5l0.4-0.1l0.4-0.5l1.1,0.8
	l0.6,0.2l0.5,0.4l0.8,0.4l3.8,1.4l1.1,0.6l0.4,0.2l0.6,0.6h0.7l0.8-0.7l0.6-0.3L197.2,177.7L197.2,177.7z M170.4,180.6l1.3-0.5
	l0.7,0.1l0.8-2.8l-0.5-1.6l0.8-0.3l2-2l0.5,0.5l0.2,0.7l-0.1,1.2l0.2,0.4l0.4,0.6h0.3l0.3-0.2l0.3-0.6l0.7-0.3l0.3-0.2l1.1-1.1
	l0.2-0.3l0.3-0.8l0.2-0.2l0.5-0.4l0.7-0.3l1.3,1.8l0.4,3.4l0.4,0.5l1.5,0.8l2.8,1.9l4.4,2.2l1.4,1.3l0.7,0.4l0.8,0.2l1-0.1h1.7
	l1.2-0.2l1.2,0.6l0.6,2l0.4,2.2l-0.2,2.6l0.6,0.8l0.8,0.7l-0.9,1.5l-0.8,1.8l-0.1,1l0.2,1.7l-0.3,0.8l-1-0.1l-0.9-0.2l-2.2,0.5h-1.1
	l-0.5-0.2l-0.5-0.5l-1.1-1l-4.1-1.3l-3.1,0.1l-1.9,0.5l-1.2-0.4l-1.3-0.2l-2.9-1.5l-1.4-0.5l-1.8-0.9l-2-0.1l-1.6-0.3l-1.3,0.3
	l-0.1-0.4v-1.5l-1-1.7l-0.2-0.3l0.1-0.5l-0.1-0.2l0.2-0.3l0.4-0.3l0.6-0.3l3.1-0.9l0.6-0.7l-0.6-0.8l-1-0.8l-1.6-0.9l-1-0.9
	l-0.4-0.6l-0.1-0.5l0.1-0.6l0.4-0.7L170.4,180.6L170.4,180.6z"/>
<path id="PRT747" class="st0" d="M150.9,123.3l0.7-0.3l3.6-1.3l0.7-0.7l1.6-1.2l0.6-0.6l0.7-1.4l0.5-0.3l1.1-0.4l0.5-0.6l0.4-0.9
	l0.5-1.6l0.5-0.3h1.1l1.2,0.2l0.7,0.3l0.7,0.2h1.2l1.1-0.2l0.6-0.3l0.6-0.7l2.4-2l0.9,0.5l1.1,0.1l1-0.3l0.9-0.6l0.5-1l0.3-1.1
	l0.4-0.9l1-0.5l0.5,0.1l1,0.4h0.5l0.4-0.4l0.3-0.6l0.1-0.6l-0.2-0.5l-0.6-1l-0.1-1l0.3-1.1l0.6-0.9l0.6-0.6l1-0.6l1-0.2l0.8,0.3
	l0.4-0.5l0.5-0.1l0.5,0.3l0.5,0.3l2.6,1.4l1.3,0.9l0.7,0.8l1-0.5l0.8,0.2l0.7-0.1l0.2,0.4l0.4,0.4l0.5,0.5l0.3,0.7l0.4,1.8l0.4,0.4
	l0.4,0.2l0.7,0.6l0.5,0.6l0.3,0.6l0.5,0.6l-0.4,0.3h-0.5l-0.2-0.1l-1-0.6l-0.3-0.1l-0.7,0.1l-0.3,0.1l-0.4,0.5l-0.2,0.4v0.8l0.4,1.1
	l0.8,0.9l0.8,0.8l0.2,0.6l-0.1,0.2v0.7l-0.3,0.6l-0.3,0.3l-1,0.6l-0.4,0.2l-0.8-0.2l-0.8,0.6l-0.7,0.1l-1,0.3l-0.8,0.9h-0.6
	l-0.3,0.1l-0.8,0.1l-0.5,0.2l-0.7,0.7l-0.6,1.6l-0.5,0.2v0.3l0.4,0.6l0.6-0.5h0.4l0.3,0.2l0.3,0.4l0.2,0.6l0.2,0.8l0.2,0.6l0.5,0.5
	l0.7,0.5l0.2,0.2l0.2,0.5l-0.4,0.9v0.4v0.4l0.2,0.4l-0.1,0.3l-0.4,0.6v0.3l0.8,0.7l0.4,0.3l0.5,1.3l-0.1,0.9l0.1,0.7l-0.1,0.5
	l-0.8,1.1l-2.4,1.8l-0.4,0.4l0.2,0.9l0.4,0.6l0.3,0.3l0.4,0.6l0.1,0.3l-0.1,1l-0.1,0.1h-0.6h-0.8l-0.4,0.1l-0.9,0.9l-0.2,0.3
	l-0.1,0.3l0.1,0.6l0.2,0.5l0.4,0.2h0.3l0.3,0.1l0.1,0.2l-0.3,0.3l-0.7,0.1l-0.6-0.1l-0.4-0.1h-0.2l-0.3,0.6l0.1,1.1l0.1,0.3l0.2,0.3
	l0.2,0.6l0.7,0.8l-0.5,1.8l-0.5,0.5l-0.8,0.3l-0.5,0.2l-0.4,0.5l-0.4,0.2l-0.9,0.3l-0.4,0.3l-0.2,0.5l-0.5,0.9h-0.8l-1.9-1.2
	l-0.5-0.5l-1.6-2.2l-2.2-2.4l-0.8-0.9l-1-0.5l-0.5-0.5l-0.2-0.4l0.2-0.7l-0.2-0.6l-0.2-0.3l-0.5-0.3l-1.1-1l-0.9-0.5l-0.4-0.2
	l-0.7-0.2l-0.3-0.2l-1.3-1.9l-1.2-0.8h-0.3l-0.4,0.2l-0.5,0.6l-1.6,1.6l-2.3-0.8l-1.2-0.9l-0.7-0.7l-0.2-0.5l0.2-0.8l0.9-1.6
	l0.6-0.6l-0.2-0.4l-1-0.8l-0.2-0.2l-0.5-0.9l-0.6-0.6l-0.8-0.5l-0.7-0.7l-0.3-0.7l-0.4-0.3l-0.8-0.4l-0.8-0.5l-0.5-0.6l0.1-0.9
	l0.3-0.7l0.1-0.7l-0.7-0.9l-0.5-0.5l-0.5-0.7l-0.2-0.8L150.9,123.3L150.9,123.3z"/>
<path id="PRT748" class="st0" d="M144.8,152.1l0.8-0.2l0.3-0.4l0.1-0.6l0.2-0.4l0.3-0.3l0.6-0.1h0.5l0.9-0.1l0.5,0.3h1l1.8-0.2
	l0.7-0.3l0.9-2.3l0.7-1v-0.8l-0.1-1.4l-0.3-0.9l-0.6,0.1l-0.9,0.3h-0.5l-0.7-0.2l-0.5-0.3l-2.6-0.4l-0.4-0.2l-0.2-0.9l0.5-1.2v-1
	l0.2-0.2l0.7-0.2l0.8-0.1h0.8h0.8l0.4-0.1l0.1-0.3l0.2-0.4v-0.5l0.3-0.8l0.5-0.6l0.5-0.7l0.9-0.8l1.3-0.9l0.4-0.1l0.9-0.3l0.5-0.4
	l0.5,0.9l0.2,0.2l1,0.8l0.2,0.4l-0.6,0.6l-0.9,1.6l-0.2,0.8l0.2,0.5l0.7,0.7l1.2,0.9l2.3,0.8l1.6-1.6l0.5-0.6l0.4-0.2h0.3l1.2,0.8
	l1.3,1.9l0.3,0.2l0.7,0.2l0.4,0.2l0.9,0.5l1.1,1l0.5,0.3l0.2,0.3l0.2,0.6l-0.2,0.7l0.2,0.4l0.5,0.5l1,0.5l0.8,0.9l2.2,2.4l1.6,2.2
	l0.5,0.5l1.9,1.2h0.8l0.5-0.9l0.2-0.5l0.4-0.3l0.9-0.3l0.4-0.2l0.4-0.5l0.5-0.2l0.8-0.3l0.5-0.5l0.5-1.8l0.7,0.4l0.2,0.2l0.1,0.8
	l0.3,0.1l0.4,0.2h0.9l0.5,0.1l0.5,0.1l0.6,0.5l0.3,0.1h0.4l0.5-0.6l0.9-2.1l0.1-0.5l0.1-0.1l0.4-0.2l0.9,0.2h0.4l0.4-0.3l0.7-0.6
	l0.2-0.7l0.3-0.2l0.5-0.1l0.7,0.2l0.6,0.7l-0.3,0.7l-0.3,0.1l-0.6,0.3l-0.1,0.2v0.4l-0.8,0.3l-0.3,0.3l-0.2,0.4l-0.2,1.2l-0.3,0.4
	l-1.1,1.1l-0.2,0.2v0.3l0.5,0.2l0.1,0.3l-0.1,0.6l0.2,0.4v0.6l-0.3,0.7v0.2l0.6,0.2l0.4,0.4l0.2,0.5v0.4l0.1,0.4l0.8,0.9l0.3,0.4
	l0.4,1.7l1.6,1.9l-0.2,1.1v0.3l-0.1,0.5l-0.5,0.5h-0.5H196l-1.4-0.1l-0.1,0.2l0.3,0.7l0.4,0.7l-0.4,1.1l-0.6,1l0.1,0.3l2.3,1.1
	l1.4,0.5l0.4,0.1l0.8,0.6l0.2,0.7v0.3l-0.4,1.1l-0.5,0.4l-0.2,0.3v0.4l0.1,0.7l0.3,0.4l0.3,0.8l0.1,0.5l-0.2,0.3l-0.3,0.4l-0.8,0.2
	l-0.6-0.1L196,178l-0.6,0.3l-0.8,0.7h-0.7l-0.6-0.6l-0.4-0.2l-1.1-0.6l-3.8-1.4l-0.8-0.4l-0.5-0.4l-0.6-0.2l-1.1-0.8l-0.4,0.5
	l-0.4,0.1l-0.4-1.5l-1-0.8l-0.3-0.3h-0.3l-0.7-0.6l-0.7-0.4l0.8,1.1l-0.7,0.3l-0.5,0.4l-0.2,0.2l-0.3,0.8l-0.2,0.3l-1.1,1.1
	l-0.3,0.2l-0.7,0.3l-0.3,0.6l-0.3,0.2h-0.3l-0.4-0.6l-0.2-0.4l0.1-1.2L176,174l-0.5-0.5l-2,2l-0.8,0.3l0.5,1.6l-0.8,2.8l-0.7-0.1
	l-1.3,0.5l-1.6,0.1l-1,0.2l-0.6-0.2l-1.5-0.8l-0.2-0.8l-0.2-0.3l-0.5-0.4l-2.6-1.3l-0.6-0.5l-0.5-1.2l-0.2-2.6l0.2-1.9l-0.4-0.6
	l-0.6-0.1l-0.7,0.3l-0.4,0.1l-0.4-0.1l-0.2-0.1v-0.3l0.2-0.4l-0.1-0.4V169l-1.4-1l-0.4-0.3l-1.4,0.5l-0.9,0.1l-1.6,0.3l-0.7-0.8
	l-0.5-0.7l-0.3-0.3l-0.5-0.2l-0.8,0.2l-0.4,0.3l-0.5,0.6l-0.4,0.1h-0.6l-1,0.1h-0.4l-0.8-0.4l-0.8-1.8l0.2-0.8l-0.1-0.4l-0.3-0.8
	l-1.5-1.9l-0.1-0.6l-0.1-0.3l-0.4-0.6l-0.2-0.6l2.2-0.5l0.6-0.1l1.2-0.3h0.4l0.6-0.2l-0.3-0.7l-0.6-1.7l-0.1-0.5l-0.4-0.8l0.1-0.8
	l-0.1-0.2l-1,0.1l-0.4,0.1h-0.2l0.1-0.3L144.8,152.1L144.8,152.1z"/>
<path id="PRT749" class="st0" d="M62.2,140l0.8,0.2l0.4,0.4l0.4,0.5l0.4,0.3l0.3,0.3l0.1,0.3v0.4l-0.3,0.5l-0.5,0.8l0.1,0.5
	l-0.6,1.2l-1.1,1.5l-0.4-0.1l-0.4,0.1l-0.8,0.8l-0.7,2l0.9,0.6l0.6,0.8l0.6,1.2v0.3l0.4,1v0.2l-0.4,0.6l-0.1,0.3l0.2,1.6l0.3,1.2
	l-0.1,1l-0.4,0.6v0.5l0.2,0.7l0.4,0.7l0.6,0.6l0.1,0.7v2.2l0.1,0.5l-0.1,0.3l-0.4,0.2l-1.1,0.3l-0.4-0.3l-0.3-0.6l-0.3-0.2l-0.3,0.2
	l-0.3,0.4l-0.2,0.4l-0.3,0.6l-1.3,1.2l-0.1,0.4l-0.1,1l-0.5,1.1l-0.5,0.9v0.9H57l-1.2,0.5l-1.1,0.1l-0.7,0.1l-0.9,0.1l-1.7,0.6
	l-1.1,0.1l-0.9,0.3h-0.3l0.1-1v-0.3l-1.1-2.9l-0.1-2.1l-0.1-0.3l-0.6-0.7l0.2-0.3l0.5-1.2l0.1-0.8l0.2-0.4l0.2-0.6l-1.3-0.7
	l-0.6,0.1l-0.6-0.2l-0.4-0.4l-0.8-0.2l-0.8-0.1l-0.8-0.2l-0.3-0.3l-0.2-0.5l0.1-0.7l-0.3-0.6l-0.6-0.7l-0.2-0.3l-0.2-0.6l-0.2-0.6
	l-0.1-3.5l-0.4-0.9l-2.1-3.8v-0.5v-0.2h0.1l0.2-3.4l-0.5-1.7l0.1-0.1l0.6,0.1l0.7,0.4l1.5,0.2l0.7,0.4l1.1,0.4l0.8,0.4l1.1,0.9v-0.6
	l-0.1-0.5l-0.1-0.5v-0.7v-0.3l-0.3-0.7l0.1-0.5l0.7-1.1l0.1-0.2l0.4-0.1l1.1,0.3l2.4,0.1l0.4-0.8l0.1-0.4l0.3-0.8l0.3-1.5l0.1-0.5
	l-0.4-1.2l-0.9-0.8l0.2-0.4l0.2-0.3l1.2-0.6l0.7,0.1l2.4,1.6l0.5,0.4l0.3,0.8l0.2,0.1l0.6,0.2l0.4,0.4l-0.1,0.4l0.2,0.4l0.5,0.3
	l1.3,0.4l0.4-0.2l0.6,0.2l1,0.6l0.4,0.1l0.2,0.3l0.1,0.1l0.7-0.1L62.2,140L62.2,140z"/>
<path id="PRT750" class="st0" d="M79.3,98.3L79.1,99l-0.1,1.7l-1.8,3.5l-0.5,0.4l-0.7,0.3l-0.7,0.2h-0.5l-0.5-0.2h-0.4l-0.2,0.7
	l-0.1,0.2l-0.5,0.4l-0.3-0.2l-1.1-0.3l0.2,0.4l1,1.5l0.6,0.4v0.8l-0.4,1.3l0.3,3.1l0.1,1l-0.5,1.3l-0.4,0.5l-1.8,1.2l-0.4,0.6v0.6
	l-1-0.3l-0.3-0.2l-0.1-0.4l-0.1-0.5l-0.1-0.2l-0.6,0.1h-0.5l-0.7-0.2l-0.5-0.3l-0.4-0.4l-0.2-0.1l-0.3,0.1l-0.6-0.1l-0.7-0.7
	l-0.5-1.4l-0.6,1l-0.4,0.3l-0.7,0.3l-1.1,0.2h-2.6l-1-1.3l-0.1-0.3l-0.2-0.4l-0.5-0.3l-0.8-0.3l-0.9-0.5l-0.5-0.4l-0.1-0.4l-0.1-0.3
	l-0.2-0.7l-0.3-0.1l-0.3,0.1l-0.4,0.1l-0.7,0.4l-0.4,0.2h-0.7l-1.4-0.2l-4.5-1.2l-2.1-1l-0.3-0.4l-0.1-0.2l-0.3-0.2l-0.3-0.1H41
	l-1,0.7l-1,0.4l-0.5,0.1l-1,0.1l-1-0.1l-0.6-0.1l-1.3,0.3l-0.7-0.4l-0.8-0.1l-1.8,0.2h-0.7l-0.3-0.3l-0.5-0.6l-0.4-0.7l-0.1-0.6
	l0.8-1.3l1.1-1.2l0.5-1.3l-0.6-1.4l-0.7-0.9l0.5-0.9l0.8-1l0.2-1.1l-0.2-2.5l-0.6-0.9l-1.6-0.3l0.2-1.2l2.3-1.4l0.3-1.2l-0.1-2.9
	l-0.4-1.3l-1.1-0.5l0.4-1l0.6-0.5l0.9-0.2l2.3,0.3l0.4-0.3l0.1-0.7l0.3-1l1,0.4l4.4,1l0.5,0.2l0.5,0.2l0.5,0.3l0.4-0.1l0.5-0.3
	l0.5-0.2l1-0.1l1-0.2l0.9-0.5l0.4-1.2l-0.1-0.4l-0.3-0.6l-0.4-0.5l-0.6-0.6v-0.5l0.7-3.2l0.7-2l1.2-1.8l1.8-1.6l0.8-0.6l0.5-0.4
	l2.8,1.9l1.1,1l0.5,0.3h0.4l0.4-0.2l0.4,0.1l2.4,1.5h0.5l0.1,1.2l0.2,0.6l0.4,0.4h0.7l0.3,0.1l0.1,0.2l-0.1,0.4v0.2l2.1,1.3l1.3,1.2
	l1,1.3l1,2.4l0.3,0.3v2.6l0.2,0.7l0.5,0.5l2.1,1.4l0.8,0.3l0.4,0.2l1.3,1.4l0.6,0.6l0.4,0.1l1.3-0.1l1,0.3l2.3,1.6L79,94l0.1,1
	l-0.2,2.5L79.3,98.3L79.3,98.3z"/>
<path id="PRT751" class="st0" d="M120.9,98.9l0.1,0.5l1.1,1.7l0.3,0.7l0.5,0.4l1.2,0.4l0.6,0.3l0.8-0.3l1.8-0.3l0.7-0.5l0.1-0.5
	l0.2-1l0.1-0.4l0.4-0.5l0.9-0.5l1.1-0.9l2.9-1.6l1.2,0.7l0.5,0.2l0.6-0.1l0.4,0.2l1.3,0.2l0.2,0.1l0.3,0.4l0.2,0.1h0.3l0.6-0.1
	l0.7,0.1h0.9l0.5,0.1l1.5,1l0.2,0.4l0.4,0.9l0.2,0.3l0.7,0.3h0.6l0.5-0.2l0.4-0.1l0.5,0.2l0.8,0.4l0.5,0.2h0.5l0.4-0.1h0.3l1.2,0.4
	l0.2,0.6l0.7,5.9v1.2l-0.6,0.9l0.3,0.7l-0.1,1.5l0.2,0.8l0.2,0.6l0.2,0.6l-0.4,8.6l0.1-0.1l-0.1,0.4l0.2,0.8l0.5,0.7l0.5,0.5
	l0.7,0.9l-0.1,0.7l-0.3,0.7l-0.1,0.9l0.5,0.6l0.8,0.5l0.8,0.4l0.4,0.3l0.3,0.7l0.7,0.7l0.8,0.5l0.6,0.6l-0.5,0.4l-0.9,0.3l-0.4,0.1
	l-1.3,0.9l-0.9,0.8l-0.5,0.7l-0.5,0.6l-0.3,0.8v0.5l-0.2,0.4l-0.1,0.3l-0.4,0.1h-0.8h-0.8l-0.8,0.1l-0.7,0.2l-0.2,0.2v1l-0.5,1.2
	l0.2,0.9l0.4,0.2l2.6,0.4l0.5,0.3l0.7,0.2h0.5l0.9-0.3l0.6-0.1l0.3,0.9l0.1,1.4v0.8l-0.7,1l-0.9,2.3l-0.7,0.3l-1.8,0.2h-1l-0.5-0.3
	l-0.9,0.1h-0.5l-0.6,0.1l-0.3,0.3l-0.2,0.4l-0.1,0.6l-0.3,0.4l-0.8,0.2l-0.5,0.2H144l-0.5-0.3l-0.2-0.2h-0.5l-0.6-0.5l-0.5-1.7
	l0.1-0.4l-0.3-0.3l-0.4-0.3l-0.4-0.3l-0.3-0.7l-0.2-0.4l-0.4-0.4l-1.5-0.8l-0.7-0.6l-0.3-0.1l-0.3-0.5l-0.1-0.5l-0.5-0.5l-0.2-0.9
	v-0.6l-0.2-0.2l-0.5-0.1l-0.2-0.8l-0.2-0.2l-0.2-0.5v-0.3l0.2-0.4l-0.1-0.2l-0.8-0.5l-0.2-0.3v-0.3l-0.1-0.8l-0.2-0.4h-0.3l-0.7,0.1
	l-0.4-0.1l-0.6-0.5l-0.4-0.9l-0.1-0.6v-0.5l0.2-0.7l0.7-0.8l-1.1-0.1l-0.8,0.1l-0.3-0.2l-0.2-0.2l0.1-0.2l0.3-0.2l0.1-0.3v-0.4
	l-0.6-0.8l-0.3-0.3l-0.3-0.2h-0.3H128l-0.5,0.2l-0.8,1.1l-0.8,0.7l-0.3,0.4l-0.4,0.2l-0.6,0.2l-0.5-0.1l-2-0.9l-0.3-0.7l-0.1-0.7
	l-0.2-0.5l-1.2-1.5l-0.4-1.1l-0.7-1l-0.9-0.9l-1.1-0.8l0.3-0.9l-0.2-1.4l-0.4-0.4l-0.3-0.2l-0.7-0.3l-0.4-0.1l-0.9-0.5l-2-2.1
	l1.3-1.5l0.3-0.9v-0.5l-0.4-1.3l-1-0.8l-0.1-0.8l-0.1-0.6v-0.3l0.2-0.5l3.1,0.3l1.4,0.5l0.8,0.7l0.5,0.4l0.4,0.1l0.3-0.1l0.3-0.4
	l0.3-0.6l0.4-1.9l-0.7-1.8v-1.9l-0.2-0.5l-0.3-0.3l-0.4-0.1l-0.4-0.1l-0.4-0.3l-0.4-0.4l0.1-0.3l0.3-0.2l1-0.5l0.4-0.4l0.1-0.9v-0.9
	l-0.2-0.7l0.1-0.6l0.5-1l0.4-0.6L120.9,98.9L120.9,98.9z"/>
<path id="PRT752" class="st0" d="M126.5,174.4l0.2-0.5l0.7-1.2l0.4,0.8l-0.1,0.4l-0.5,0.6l-0.6,0.1L126.5,174.4L126.5,174.4z
	 M114.8,154.9l0.2-0.4l0.3-0.4l0.3-1.2l0.7-1l0.6-0.6l0.3-0.6l0.3-0.3v-0.3l-0.4-0.2l-0.5-0.1l-0.1-0.2l-0.3-1.7l0.3-2.3l-2.2-3
	l-0.9-2.2l-1.3-1.7l-0.3-0.7l-1.5-1l-1.1-1.3l-0.5-0.5l-0.3-0.4l-0.2-0.8l1.2-0.4l0.2-0.3l0.4-0.2h0.3l0.5,0.1l0.4,0.3l0.3,0.6
	l0.2,0.3l0.4,0.1l0.5-0.2l0.2-0.4l0.2-0.7l0.2-0.2h0.5l1.9-0.3l0.4-0.3l0.5-0.5l0.3-0.2l0.3,0.1l0.7,0.9l0.4,0.4l0.5,0.3l0.8,0.2
	l1.1,0.4l0.6-1.1l0.9-0.6l2,0.9l0.5,0.1l0.6-0.2l0.4-0.2l0.3-0.4l0.8-0.7l0.8-1.1l0.5-0.2h0.7h0.3l0.3,0.2l0.3,0.3l0.6,0.8v0.4
	l-0.1,0.3l-0.3,0.2l-0.1,0.2l0.2,0.2l0.3,0.2l0.8-0.1l1.1,0.1l-0.7,0.8l-0.2,0.7v0.5l0.1,0.6l0.4,0.9l0.6,0.5l0.4,0.1l0.7-0.1h0.3
	l0.2,0.4l0.1,0.8v0.3l0.2,0.3l0.8,0.5l0.1,0.2l-0.2,0.4v0.3l0.2,0.5l0.2,0.2l0.2,0.8l0.5,0.1l0.2,0.2v0.6l0.2,0.9l0.5,0.5l0.1,0.5
	l0.3,0.5l0.3,0.1l0.7,0.6l-0.7-0.1l-0.5,0.2l-0.5-0.2l-0.3-0.2l-0.3-0.4l-2.7,1.6l-0.9,0.2l-1.5-0.3l-0.7,0.4l-0.5,0.7l1.6,1.3
	l-0.4,1.1l1.5,1.7l1,0.7l0.6-0.1l0.7-0.7l0.3-0.1l0.4,0.1l0.3,0.2v0.3l-0.3,0.7l0.1,0.4l1.6,1.4l0.6,1.6l-0.1,0.6l-0.4-0.5l-0.3-0.2
	l-0.5-0.1l-0.6,0.2l-1,0.4l-1.2,0.5l-0.2,0.3v0.4h0.2v0.8l1.1,1.3l0.6,1.1l0.9,0.7l0.3,0.3l-0.5,0.3l-0.4,0.1h-0.8l-0.5,0.1
	l-1.2,0.2l-0.3,0.3l-0.1,0.3v0.5l0.4,0.6l1,0.6l0.2,0.3l0.1,0.4l-0.2,0.4l-0.6,0.4l-0.6,0.7l-0.3,0.4l-0.2,0.9l-0.1,0.8l-0.2,2
	l0.5,1l0.3,0.4l0.1,0.4l-0.3,1.3l-0.3,0.6l-0.2,0.3l-0.6,1.3l-4-1.4l-0.8-0.6l0.7-0.4l0.3-0.7l0.1-1.6h-0.4l-0.6,0.7l-0.4,0.6
	l-0.3,0.7l-0.2,1.8l-0.5,0.7l-0.8,0.4h-1.1l-1.4-0.5l-2.5-1.2l-10.4-2.6l-2.5-0.5h0.1l4.5-4.4l0.2-1.4l-0.6-0.3l-0.8-0.1l-1.4-0.9
	l1.1-1.5l1.3,0.2h0.5l0.9-0.1l0.4-0.3l0.1-0.3l-0.2-0.4l-0.4-0.6l-0.3-0.7v-0.4l1-0.2l0.9-0.5h0.4h0.3l0.8,0.2l0.1,0.1l0.5,0.5
	l0.3,0.2l0.8,0.3l0.5,0.1h0.5h0.3l0.4-0.3l0.2-2.3l-0.6-0.7l-0.5-0.2l-1.1-0.9l-0.4-0.2l-0.4-0.3l-0.1-0.3v-0.9l-0.6-0.4h-0.4
	L114.8,154.9L114.8,154.9z"/>
<path id="PRT753" class="st0" d="M79.3,98.3l1,0.2l0.7,0.4l0.6-0.1l0.6-0.4l1.4-1.2l0.9-0.6l2.1-0.8l1.2-0.4l0.4-0.3l0.2-0.6
	l0.3-0.4l0.7-0.2L90,94l0.2,0.7l1.4,0.1l0.9-0.2l0.5,0.1l0.6,0.1h1l0.7-0.1l1.7-0.5l1.8-0.3l0.9-0.1h0.7l0.9,0.3L103,95l0.8,0.2h0.9
	l0.5-0.4l0.5-0.4l0.7-0.4l0.9-0.3l0.7,0.1l1.3,1l1.8,0.7l1.7-0.2l1.5-0.9l1.3-1.4l1.3,0.7l0.3,0.4l1.3,1.7l0.3,0.2l0.4,0.2h0.9
	l0.3,0.1l0.5,0.8v0.7v0.8v0.3l-0.7,0.6l-0.4,0.6l-0.5,1l-0.1,0.6l0.2,0.7v0.9l-0.1,0.9l-0.4,0.4l-1,0.5l-0.3,0.2l-0.1,0.3l0.4,0.4
	l0.4,0.3l0.4,0.1l0.4,0.1l0.3,0.3l0.2,0.5v1.9l0.7,1.8l-0.4,1.9l-0.3,0.6l-0.3,0.4L119,114l-0.4-0.1l-0.5-0.4l-0.8-0.7l-1.4-0.5
	l-3.1-0.3l-0.2,0.5v0.3l0.1,0.6l0.1,0.8l1,0.8l0.4,1.3v0.5l-0.3,0.9l-1.3,1.5l2,2.1l0.9,0.5l0.4,0.1l0.7,0.3l0.3,0.2l0.4,0.4
	l0.2,1.4l-0.3,0.9l1.1,0.8l0.9,0.9l0.7,1l0.4,1.1l1.2,1.5l0.2,0.5l0.1,0.7l0.3,0.7l-0.9,0.6l-0.6,1.1l-1.1-0.4l-0.8-0.2l-0.5-0.3
	l-0.4-0.4l-0.7-0.9l-0.3-0.1l-0.3,0.2l-0.5,0.5l-0.4,0.3l-1.9,0.3h-0.5l-0.2,0.2l-0.2,0.7l-0.2,0.4l-0.5,0.2l-0.4-0.1l-0.2-0.3
	l-0.3-0.6l-0.4-0.3l-0.5-0.1H110l-0.4,0.2l-0.2,0.3l-1.2,0.4l-0.4-0.4l-0.2-1.2l-0.1-0.4l-0.8-1l-0.4-1.2l-0.9-1.3l-0.6-1.7
	l-0.5-2.6l-1.1,0.1l-2.9-0.9l-0.6-0.5l-1.3-0.2l-1,0.7l-0.5,0.8l-0.8,0.5l-0.6-0.5l-0.3-0.1h-0.3l-0.7,0.3l-0.8,1l-0.4,0.4h-0.4
	l-0.4-0.1l-0.6-0.5l-0.8-0.4l-1.4-0.5l-0.6-0.4l-0.2-0.5l0.1-1l0.1-0.4l0.5-0.6l2-1.8v-0.7l-0.6-0.4l-2.1-0.9h-0.5l-0.6,0.1
	l-0.3,0.2l-1,0.1l-0.3-0.4l0.4-1.6l-1.2-1.2l-0.9-0.4h-0.6l-0.4,0.1l-0.3,0.2l-0.4,0.7l-0.3,0.3l-0.6,0.3l-0.3,0.1l-0.2-0.2V115
	l-0.3-0.5l-1.4,0.2l-1-0.2l-1.6-0.3l-3.4-1l-0.3-3.1l0.4-1.3V108l-0.6-0.4l-1-1.5l-0.2-0.4l1.1,0.3l0.3,0.2l0.5-0.4l0.1-0.2l0.2-0.7
	h0.4l0.5,0.2h0.5l0.7-0.2l0.7-0.3l0.5-0.4l1.8-3.5l0.1-1.7L79.3,98.3L79.3,98.3z"/>
<path id="PRT754" class="st0" d="M62.2,140l0.9-0.6h0.4l0.5-0.1l0.4-0.2l0.4-0.6l0.8-1.1l0.7,0.2l0.8-0.2l1.2-0.7l0.5-0.7l2.1,0.6
	l1.3,0.1l1.2,0.2l1.1,1.7l1.7,4.9l0.1,1.1l-0.3,4l0.3,1.3l1.1,2.6l0.6,0.2l0.1,0.1l1.4,2l-0.3,0.8l0.5,1h0.6l0.3-0.2H81l0.2,0.1v0.3
	l-0.6,0.7l-0.9,0.5l-0.8,0.8l0.8,0.7l0.3,0.2l0.7,0.3l0.2,0.3v0.4l-0.3,0.5l-0.3,0.4l-0.2,0.3v0.5l0.5,0.6l0.4,1.3l-0.4,0.6l0.2,1.8
	l0.1,0.4h-0.7l-3.5,0.4h-1.9l-0.7-0.7h-0.4l-0.3,1.5l-1.5,0.8l-1.8,0.5l-1.5,0.7l-0.7-0.2l-0.6,0.1l-0.6,0.2l-0.6,0.2h-1.6l-0.6,0.2
	l-0.1,0.3l-1.1,0.3l-1,0.6l-0.7,0.2h-0.7l-1.5,0.1l-1.7-0.5v-0.9l0.5-0.9l0.5-1.1l0.1-1l0.1-0.4l1.3-1.2l0.3-0.6l0.2-0.4l0.3-0.4
	l0.3-0.2l0.3,0.2l0.3,0.6l0.4,0.3l1.1-0.3l0.4-0.2l0.1-0.3l-0.1-0.5v-2.2l-0.1-0.7l-0.6-0.6l-0.4-0.7l-0.2-0.7v-0.5l0.4-0.6l0.1-1
	l-0.3-1.2l-0.2-1.6l0.1-0.3l0.4-0.6v-0.2l-0.4-1v-0.3l-0.6-1.2l-0.6-0.8l-0.9-0.6l0.7-2l0.8-0.8l0.4-0.1l0.4,0.1l1.1-1.5l0.6-1.2
	l-0.1-0.5l0.5-0.8l0.3-0.5V142l-0.1-0.3l-0.3-0.3l-0.4-0.3l-0.4-0.5l-0.4-0.4L62.2,140L62.2,140z"/>
<path id="PRT755" class="st0" d="M73.4,113.2l3.4,1l1.6,0.3l1,0.2l1.4-0.2l0.3,0.5v0.9l0.2,0.2l0.3-0.1l0.6-0.3l0.3-0.3l0.4-0.7
	l0.3-0.2l0.4-0.1h0.6l0.9,0.4l1.2,1.2l-0.4,1.6l0.3,0.4l1-0.1l0.3-0.2l0.6-0.1h0.5l2.1,0.9l0.6,0.4v0.7l-2,1.8l-0.5,0.6l-0.1,0.4
	l-0.1,1l0.2,0.5l0.6,0.4l1.4,0.5l0.8,0.4l0.6,0.5l0.4,0.1H93l0.4-0.4l0.8-1l0.7-0.3h0.3l0.3,0.1l0.6,0.5l0.8-0.5l0.5-0.8l1-0.7
	l1.3,0.2l0.6,0.5l2.9,0.9l1.1-0.1l0.5,2.6l0.6,1.7l0.9,1.3l0.4,1.2l0.8,1l0.1,0.4l0.2,1.2l0.4,0.4l0.2,0.8l0.3,0.4l0.5,0.5l1.1,1.3
	l1.5,1l0.3,0.7l1.3,1.7l0.9,2.2l2.2,3l-0.3,2.3l0.3,1.7l0.1,0.2l0.5,0.1l0.4,0.2v0.3l-0.3,0.3l-0.3,0.6l-0.6,0.6l-0.7,1l-0.3,1.2
	l-0.3,0.4l-0.2,0.4l-1.6,0.2l-1.8-1.1l-0.4-0.2h-0.7l-0.7,0.4h-0.4h-0.3l-0.7-0.9l-0.9-2.2l-0.8,0.4l-0.5,0.6l-0.4,0.2l-0.9,0.2
	l-1.2,0.5h-0.3l-0.4-0.2l-0.3-0.3l-0.6-1.6l-0.6,0.7l-0.3,0.7l-0.1,0.2l-0.7,0.2l-1.5,0.1l-0.4,0.1l-0.4,0.2l-0.6,0.6l-0.3,0.2h-0.4
	h-0.4l-0.7-0.3l-0.8-1l-1-0.9l-1.7-0.8l-0.6-0.4h-0.3l-1.7,0.4l-0.1-1.2l0.2-0.3v-0.5l-0.1-0.5l-0.3-0.7v-0.4l0.1-0.4l0.4-0.6v-0.4
	l-0.1-0.3l-0.3-0.2h-0.6l-1,0.3l-1.4,0.2l-0.7,0.2h-0.3l-0.6-0.1l-0.6-0.2l-1.8-1.3h-0.3h-0.4l-0.2,0.1v0.3l0.4,0.5l0.3,0.2l0.7,0.3
	l0.1,0.6v0.4l-1.5,3h-1.1h-0.4l-0.8,0.2l-1.6,2.4l-1.1-2.6l-0.3-1.3l0.3-4l-0.1-1.1l-1.7-4.9l-1.1-1.7l-1.3-2.1L72,134l0.2-0.6
	l0.9-0.9l0.4-0.5l0.2-0.7l0.1-0.7l-0.2-0.8l-0.2-0.7l-0.8-1.1l-0.3-0.6l-0.1-0.8l0.2-1.7l-0.2-1.8l-1.8-4.7v-0.6l0.4-0.6l1.8-1.2
	l0.4-0.5l0.5-1.3L73.4,113.2L73.4,113.2z"/>
<path id="PRT756" class="st0" d="M34.6,109.5l1.3-0.3l0.6,0.1l1,0.1l1-0.1l0.5-0.1l1-0.4l1-0.7h1.2l0.3,0.1l0.3,0.2l0.1,0.2l0.3,0.4
	l2.1,1l4.5,1.2l1.4,0.2h0.7l0.4-0.2l0.7-0.4l0.4-0.1l0.3-0.1l0.3,0.1l0.2,0.7l0.1,0.3l0.1,0.4l0.5,0.4l0.9,0.5l0.8,0.3l0.5,0.3
	l0.2,0.4l0.1,0.3l1,1.3H61l1.1-0.2l0.7-0.3l0.4-0.3l0.6-1l0.5,1.4l0.7,0.7l0.6,0.1l0.3-0.1l0.2,0.1l0.4,0.4l0.5,0.3l0.7,0.2h0.5
	l0.6-0.1l0.1,0.2l0.1,0.5l0.1,0.4l0.3,0.2l1,0.3l1.8,4.7l0.2,1.8l-0.2,1.7l0.1,0.8l0.3,0.6l0.8,1.1l0.2,0.7l0.2,0.8l-0.1,0.7
	l-0.2,0.7l-0.4,0.5l-0.9,0.9L72,134l0.1,0.8l1.3,2.1l-1.2-0.2l-1.3-0.1l-2.1-0.6l-0.5,0.7l-1.2,0.7l-0.8,0.2l-0.7-0.2l-0.8,1.1
	l-0.4,0.6l-0.4,0.2l-0.5,0.1h-0.4l-0.9,0.6l-0.9-0.3l-0.7,0.1l-0.1-0.1l-0.2-0.3l-0.4-0.1l-1-0.6l-0.6-0.2l-0.4,0.2l-1.3-0.4
	l-0.5-0.3l-0.2-0.4l0.1-0.4l-0.4-0.4l-0.6-0.2l-0.2-0.1l-0.3-0.8l-0.5-0.4l-2.4-1.6l-0.7-0.1l-1.2,0.6l-0.2,0.3l-0.2,0.4l0.9,0.8
	l0.4,1.2l-0.1,0.5l-0.3,1.5l-0.3,0.8l-0.1,0.4l-0.4,0.8l-2.4-0.1l-1.1-0.3l-0.4,0.1l-0.1,0.2l-0.7,1.1l-0.1,0.5l0.3,0.7v0.3v0.7
	l0.1,0.5l0.1,0.5v0.6l-1.1-0.9l-0.8-0.4l-1.1-0.4l-0.7-0.4l-1.5-0.2l-0.7-0.4l-0.6-0.1l-0.1,0.1v-0.1l-1.4-1.3l-0.6-0.4l-0.6-0.5
	l-0.2-0.5l0.1-0.7v-0.7l-0.7-0.4l-0.9-0.2l-0.6-0.2l-0.3-0.7l1.4-0.2l1.5-0.2v-1.3l-0.3-0.3l-0.6-0.3l-0.1-0.4v-1.1l-0.6-2.4
	l-0.6-1.2l0.2-0.6l0.8-1.1l0.3-0.7l0.1-2.1l1.7,0.6h0.5l0.4-0.7v-0.7l-0.1-0.8l-0.3-0.8l-0.4-0.6l-0.4-0.3l-0.7-0.1l-0.2-0.3v-0.3
	l0.4-0.6v-0.4l0.2-0.5l0.7-0.5l1-0.4l0.8-0.2l-0.4-0.5l-1.1-1l-0.4-0.5l-0.1-0.6v-1.5l-0.1-0.7l-1-2.8l-0.8-1.3L34.6,109.5
	L34.6,109.5z"/>
</svg>
